# xmcd
#
# Track frame offsets:
#	150
#	20514
#	37749
#	56029
#	75853
#	88183
#	101742
#	116939
#	140029
#	152632
#	166389
#	183017
#	197782
#	210942
#	224622
#	246209
#	257416
#	278349
#	297114
#	312287
#	322052
#
# Disc length: 4437 seconds
#
# Revision: 0
# Processed by: cddbd v1.5.1PL0 Copyright (c) Steve Scherf et al.
# Submitted via: dBpowerAMP V4.0
#
DISCID=26115315
DTITLE=ccr - carney man
DYEAR=1900
DGENRE=
TTITLE0=fowler
TTITLE1=steve earl
TTITLE2=steve earl
TTITLE3=ccr
TTITLE4=ccr
TTITLE5=bolin
TTITLE6=Track0bolin7
TTITLE7=chode
TTITLE8=Tracak09
TTITLE9=a
TTITLE10=d
TTITLE11=h
TTITLE12=ok
TTITLE13=cf
TTITLE14=lk
TTITLE15=16
TTITLE16=pp
TTITLE17=asd
TTITLE18=T
TTITLE19=ghu
TTITLE20=fgv
EXTD=
EXTT0=
EXTT1=
EXTT2=
EXTT3=
EXTT4=
EXTT5=
EXTT6=
EXTT7=
EXTT8=
EXTT9=
EXTT10=
EXTT11=
EXTT12=
EXTT13=
EXTT14=
EXTT15=
EXTT16=
EXTT17=
EXTT18=
EXTT19=
EXTT20=
PLAYORDER=
